<svg width="1201" height="242" viewBox="0 0 1201 242" fill="none" xmlns="http://www.w3.org/2000/svg">
<path d="M222.222 227.545L123.153 19.1899C122.452 11.5769 124.054 8.87232 129.964 6.46823H189.265C191.569 6.76874 192.371 7.36977 193.473 8.9725L265.495 158.026C268.3 165.138 268.4 168.845 265.495 174.955L240.953 227.444C234.242 238.764 229.233 238.864 222.222 227.545Z" stroke="black" stroke-width="12"/>
<path d="M105.322 227.545L6.15362 19.0897C5.45242 11.4767 7.05515 8.77214 12.9652 6.36804H72.2662C74.5701 6.66855 75.3715 7.26958 76.4733 8.87231L148.496 157.926C151.301 165.038 151.401 168.745 148.496 174.855L123.954 227.344C117.343 238.764 112.334 238.864 105.322 227.545Z" stroke="black" stroke-width="12"/>
<path d="M232.239 8.97247C231.638 7.67026 231.938 7.26956 233.941 7.26956H306.765C308.468 7.26956 308.969 7.57009 308.468 8.97247L272.006 88.6081C271.405 89.9103 271.005 90.1106 270.303 88.6081L232.239 8.97247Z" fill="black" stroke="black" stroke-width="12"/>
<path d="M421.531 185.687V229.299C407.308 233.385 393.085 236.136 378.312 236.136C337.921 236.136 307.904 207.218 307.904 157.084C307.904 107.579 336.9 77.09 375.247 77.09C401.414 77.09 431.667 92.3345 431.667 128.796C431.667 164.864 399.607 178.301 375.011 178.301C365.582 178.301 356.231 175.158 347.587 170.836C352.695 188.281 367.939 191.031 381.14 191.031C387.977 191.031 394.892 190.716 401.728 189.459C408.093 188.831 415.48 187.888 421.531 185.687Z" fill="black" stroke="black" stroke-width="3.0813"/>
<path d="M349.63 137.754C353.48 139.325 357.724 140.583 362.36 141.211C366.917 142.154 371.239 142.468 375.326 142.468C380.433 142.468 393.399 141.211 393.399 132.174C393.399 122.509 382.241 122.195 376.661 122.195C365.346 122.195 355.759 125.338 349.63 137.754Z" fill="#F2F2F2" stroke="black" stroke-width="3.0813"/>
<path d="M571.932 84.2407V127.538H536.336V156.77C536.336 180.737 549.301 192.838 568.082 192.838C570.361 192.838 572.404 192.524 574.211 192.21C576.019 191.895 577.512 191.581 579.319 191.267V234.564C577.04 234.878 575.233 235.507 573.976 235.821C572.482 236.136 569.889 236.136 566.589 236.136C528.242 236.136 498.225 204.075 498.225 156.77V127.538V84.2407V8.49997H536.336V84.2407H571.932Z" fill="black" stroke="black" stroke-width="3.0813"/>
<path d="M711.333 184.902V228.513C697.11 232.6 682.887 235.35 668.114 235.35C627.724 235.35 597.707 206.432 597.707 156.298C597.707 106.793 626.703 76.3041 665.05 76.3041C691.217 76.3041 721.47 91.5487 721.47 128.01C721.47 164.078 689.409 177.515 664.814 177.515C655.384 177.515 646.033 174.372 637.389 170.05C642.497 187.495 657.742 190.245 670.943 190.245C677.78 190.245 684.695 189.931 691.531 188.673C697.896 188.045 705.282 187.102 711.333 184.902Z" fill="black" stroke="black" stroke-width="3.0813"/>
<path d="M639.433 136.968C643.283 138.539 647.526 139.797 652.163 140.425C656.72 141.368 661.042 141.683 665.128 141.683C670.236 141.683 683.202 140.425 683.202 131.389C683.202 121.723 672.043 121.409 666.464 121.409C655.149 121.409 645.562 124.552 639.433 136.968Z" fill="#F2F2F2" stroke="black" stroke-width="3.0813"/>
<path d="M847.198 182.151V228.828C834.232 234.093 820.795 235.664 807.279 235.664C767.911 235.664 739.936 203.604 739.936 155.984C739.936 106.479 768.932 76.3041 807.279 76.3041C820.716 76.3041 834.232 77.8757 847.198 83.1406V129.817C836.039 122.666 822.052 120.78 809.558 120.78C801.15 120.78 791.013 122.981 785.198 131.074C779.855 137.596 778.048 146.947 778.048 155.67C778.048 160.62 778.519 165.335 779.855 169.343C780.876 173.665 782.684 177.436 785.198 180.58C790.777 188.988 801.229 191.188 809.558 191.188C820.795 191.188 837.297 188.673 847.198 182.151Z" fill="black" stroke="black" stroke-width="3.0813"/>
<path d="M903.618 158.263V236.057H865.507V8.49997H903.618V94.7704C912.498 83.2192 923.735 78.8973 936.386 78.8973C972.454 78.8973 995.085 116.851 995.085 158.263V236.057H956.974V158.263C956.974 137.125 950.137 122.195 931.593 122.195C913.284 122.195 903.618 136.496 903.618 158.263Z" fill="black" stroke="black" stroke-width="3.0813"/>
<path d="M1099.52 80.3903H1061.41V235.979H1099.52V80.3903Z" fill="black" stroke="black" stroke-width="3.0813"/>
<path d="M1080.42 65.4601C1067.46 65.4601 1058.34 54.5375 1058.34 38.6644C1058.34 22.4769 1067.46 11.8687 1080.42 11.8687C1093.62 11.8687 1102.27 22.4769 1102.27 38.6644C1102.27 55.1662 1093.94 65.4601 1080.42 65.4601Z" fill="black" stroke="black" stroke-width="3.0813"/>
<path d="M1191.61 84.2407V127.538H1156.02V156.77C1156.02 180.737 1168.98 192.838 1187.76 192.838C1190.04 192.838 1192.08 192.524 1193.89 192.21C1195.7 191.895 1197.19 191.581 1199 191.267V234.564C1196.72 234.878 1194.91 235.507 1193.66 235.821C1192.16 236.136 1189.57 236.136 1186.27 236.136C1147.92 236.136 1117.91 204.075 1117.91 156.77V8.5H1156.02V84.2407H1191.61Z" fill="black" stroke="black" stroke-width="3.0813"/>
</svg>
